<svg xmlns="http://www.w3.org/2000/svg" viewBox="0 0 1280 640" width="1280" height="640" font-family="DejaVu Sans, Verdana, sans-serif">
  <rect width="1280" height="640" fill="#0B0F19"/>
  <rect width="16" height="640" fill="#00D2FF"/>
  <rect x="100" y="52" width="180" height="180" rx="34" fill="#16203a"/>
  <svg x="100" y="52" width="180" height="180" viewBox="0 0 512 512">
  <path d="M88 168L176 256L88 344M176 168L264 256L176 344" fill="none" stroke="#10B981" stroke-width="40" stroke-linecap="round" stroke-linejoin="round"/>
  <rect x="324" y="206.0" width="26" height="100" rx="13.0" fill="#00D2FF"/><rect x="368" y="156.0" width="26" height="200" rx="13.0" fill="#00D2FF"/><rect x="412" y="191.0" width="26" height="130" rx="13.0" fill="#00D2FF"/></svg>
  <text x="100" y="318" font-size="92" font-weight="700" fill="#f8fafc">dengjen-tts-go</text>
  <text x="100" y="378" font-size="34" fill="#cbd5e1">Go bindings for dengjen-tts, with prebuilt binaries.</text>
  <rect x="100" y="420" width="96" height="56" rx="12" fill="#00D2FF"/><text x="148.0" y="457" text-anchor="middle" font-size="26" font-weight="700" fill="#0B0F19">Go</text><rect x="216" y="420" width="154" height="56" rx="12" fill="#00D2FF"/><text x="293.0" y="457" text-anchor="middle" font-size="26" font-weight="700" fill="#0B0F19">native</text><rect x="390" y="420" width="103" height="56" rx="12" fill="#00D2FF"/><text x="441.5" y="457" text-anchor="middle" font-size="26" font-weight="700" fill="#0B0F19">TTS</text>
  <text x="100" y="568" font-size="26" font-family="DejaVu Sans Mono, monospace" fill="#94a3b8">ZirekHQ/dengjen-tts-go</text>
  <text x="1180" y="568" font-size="26" text-anchor="end" fill="#94a3b8">GPL-3.0-or-later</text>
</svg>
